<svg width="178" viewBox="0 0 178 51" xmlns="http://www.w3.org/2000/svg" fill-rule="evenodd" clip-rule="evenodd" stroke-linejoin="round" stroke-miterlimit="2">
    <path d="M161 12.1h-11v25.7h4v-22h7v-3.7zm3.5 0h2.6V5.4h3.6v6.7h6.4v3.7h-6.4v16.3c0 1.3 1.5 2.2 2.3 2.2h3.7v3.5h-4c-1.5 0-3-.6-4-1.7-1-1-1.6-2.5-1.6-4V15.8h-2.7v-3.7zm-59.2 25.7h17.5v-3.5h-13.4v-14c0-1.1.4-2.3 1.3-3.1.8-.9 2-1.4 3.1-1.4h4.8v3.7h4v-7.4H113c-2 0-4 .8-5.5 2.3a7.8 7.8 0 00-2.2 5.5l.1 18zM90.2 21l5.3-8.9h4.8l-7.6 12.7 8.6 13h-4.7l-6.2-9.2-5.5 9.2h-4.8l7.8-13-5.4-8.2H80v-4.5h4.4l5.9 9zm41.8 5.8v5.6c0 .4.1 1 .4 1.3.4.3.9.5 1.3.5h11v3.6H132c-2 0-3.7-1.7-3.7-3.8V17c0-1.4.5-2.6 1.4-3.5.8-.9 2-1.4 3.3-1.4h7.4a5 5 0 013.5 1.5c1 1 1.5 2.3 1.5 3.6v9.6H132zm0-3.3h9.9v-5.3c0-1.4-1.1-2.6-2.5-2.6h-4.9c-1.6 0-2.6 1-2.6 2.6v5.3z" fill="#2c2f31"/>
    <path d="M40.6 0c1 0 1.9.8 1.9 1.9v39.3c0 1-.8 1.8-1.9 1.8h-3l-8.3-8.3a.8.8 0 00-1 0l-4 4a.8.8 0 000 1l3.3 3.3H15.3l16.4-16.4 4.5-4.5c.3-.3.3-.8 0-1l-7.4-7.5a.8.8 0 00-1.1 0l-4 4c-.2.2-.2.7 0 1l2.5 2.4c.3.3.3.8 0 1.1l-20.8 21H1.8c-1 0-1.8-.9-1.8-2V2C0 .9.8 0 1.8 0h3.5L13 7.9c.3.3.8.3 1.1 0l4-4c.2-.3.2-.7 0-1l-3-2.9h11.4L6.3 20.5c-.3.3-.3.8 0 1l7.6 7.7c.3.3.8.3 1 0l4-3.9c.3-.3.3-.8 0-1.1l-2.7-2.6a.8.8 0 010-1.1L36.6 0h4z" fill="#3c8cff"/>
    <path d="M75.5 11.2c0-3.1-2.7-5.7-6-5.7h-9c-3.4 0-6.1 2.6-6.1 5.7v20.9c0 3.2 2.7 5.7 6 5.7h9c3.4 0 6-2.5 6-5.7V11.2zm-3.8 6.6L58.1 29.4V32c0 1.2 1 2.1 2.3 2.1h9.1c1.2 0 2.2-.9 2.2-2V17.7zm0-5.2v-1.3c0-1.2-1-2.1-2.2-2.1h-9.1c-1.3 0-2.2 1-2.2 2.1v12.9l13.5-11.6z" fill="#2c2f31"/>
    <text x="105.3" y="50.9" font-family="'Overpass-Heavy','Overpass'" font-weight="900" font-size="10" fill="#0c71ff">
        V<tspan x="115.8 126 136.8 143.7 153.3 160.2 170.4" y="50.9 50.9 50.9 50.9 50.9 50.9 50.9">ERIFIER</tspan>
    </text>
</svg>
