<svg width="135" viewBox="0 0 135 44" xmlns="http://www.w3.org/2000/svg" fill-rule="evenodd" clip-rule="evenodd" stroke-linejoin="round" stroke-miterlimit="2">
    <g fill="#b3b3b3">
        <path d="M44.1 17.2h.9v-2.9h1.9c1.6 0 2.3-1.2 2.3-2.2 0-1-.6-2.1-2.3-2.1H44v7.2zm2.8-3.7H45v-2.7h2c1 0 1.3.8 1.3 1.3 0 .7-.4 1.4-1.4 1.4zm4.8 3.8c1.4 0 2.3-1 2.3-2.7 0-1.8-.9-2.8-2.3-2.8s-2.3 1-2.3 2.8c0 1.7 1 2.7 2.3 2.7zm0-.8c-.9 0-1.4-.7-1.4-2 0-1.2.5-1.9 1.4-1.9 1 0 1.4.8 1.4 2s-.5 1.9-1.4 1.9zm4.3.7h.7l1-3.1.1-.7.2.7 1 3.1h.8l1.3-5.3h-.8l-.8 3.6-.2.5-.1-.5-1-3.6h-.7l-1 3.6-.1.5-.2-.5-.8-3.6h-.8l1.3 5.3zm7.9.1c.7 0 1.3-.3 1.7-.7L65 16c-.3.4-.7.5-1.1.5-.8 0-1.4-.6-1.4-1.6H66v-.6c0-1.7-1-2.5-2.1-2.5-1.4 0-2.4 1-2.4 2.8 0 1.6 1 2.7 2.4 2.7zm-1.5-3.2c.1-1 .7-1.5 1.5-1.5.5 0 1.2.3 1.2 1.5h-2.7zm4.6 3.1h.9v-3c0-1.2.6-1.5 1.1-1.5l.8.2.1-.8c-.2-.2-.5-.3-.8-.3-.6 0-1 .3-1.2.8V12h-1v5.3zm5.6.1c.7 0 1.3-.3 1.7-.7l-.6-.6c-.3.4-.7.5-1.1.5-.8 0-1.4-.6-1.4-1.6h3.5v-.6c0-1.7-1-2.5-2.1-2.5-1.4 0-2.4 1-2.4 2.8 0 1.6 1 2.7 2.4 2.7zM71 14.1c.1-1 .7-1.5 1.5-1.5.5 0 1.2.3 1.2 1.5H71zm6.5 3.2c.7 0 1-.2 1.4-.5v.4h.8V9.8l-.8.4v2.1c-.3-.3-.8-.5-1.4-.5-1.3 0-2.1 1-2.1 2.8 0 1.7.8 2.7 2.1 2.7zm.2-.8c-1 0-1.4-.9-1.4-2 0-1.2.5-1.9 1.4-1.9.6 0 1 .4 1.2.7v2.5c-.3.4-.8.7-1.3.7zm7.6.8c1.3 0 2.1-1 2.1-2.7 0-1.8-.9-2.8-2.2-2.8-.5 0-1 .3-1.3.6V9.8l-.9.4v7h1v-.5c.2.3.6.6 1.3.6zm-.2-.8c-.4 0-1-.3-1.2-.7v-2.5c.2-.3.7-.7 1.2-.7 1 0 1.4.7 1.4 2 0 1.1-.4 1.9-1.4 1.9zm3.9 2.7h1l2.6-7.3h-.9l-1.3 3.6-.2.5-.1-.5-1.3-3.6h-1l2 5.2-.8 2.1zm8.8-1.9c2 0 2.6-2 2.6-3.7 0-1.8-.6-3.8-2.6-3.8s-2.6 2.1-2.6 3.8c0 1.8.6 3.7 2.6 3.7zm0-1c-1.1 0-1.5-1.4-1.5-2.7 0-1.3.3-2.7 1.5-2.7s1.5 1.3 1.5 2.7c0 1.2-.3 2.7-1.5 2.7zm3.2.9h1.2l1-1.4.2-.4.3.4.8 1.4h1.3l-1.8-2.8 1.6-2.5h-1.2l-.7 1.2c-.2.1-.2.3-.3.4l-.3-.4-.7-1.2h-1.2l1.6 2.5-1.8 2.8zm7.4.1c1 0 1.8-.5 2-1.5l-1-.3c-.1.5-.5.8-1 .8-.7 0-1.2-.7-1.2-1.7 0-1.1.5-1.8 1.3-1.8.4 0 .8.3 1 .7l1-.3c-.4-1-1-1.4-2-1.4-1.5 0-2.4 1-2.4 2.8 0 1.7 1 2.7 2.3 2.7zm5 0c.8 0 1.4-.3 1.8-.7l-.7-.8c-.3.4-.7.6-1.1.6-.7 0-1.3-.6-1.4-1.4h3.6v-.7c0-1.7-1-2.5-2.2-2.5-1.5 0-2.4 1-2.4 2.8 0 1.7.9 2.7 2.4 2.7zm-1.4-3.2c.1-1 .7-1.4 1.4-1.4.5 0 1.1.4 1.2 1.4H112zm4.4 3.1h1v-3c0-1 .6-1.4 1.1-1.4.4 0 .7.2.9.3l.1-1c-.2-.2-.5-.3-.9-.3-.5 0-1 .2-1.2.7V12h-1v5.3zm5.7.1c.4 0 .8 0 1-.2l.2-1c-.3.2-.5.2-.8.2-.4 0-.5-.2-.5-.6v-2.9h1.3V12H122V9.7l-1 .5V12h-.9v1h.8v3c0 .8.4 1.3 1.2 1.3zm-78 15.9h2.6v-4.9h3.5V26h-3.5v-2h5.6v-2.5h-8.2v11.8z" fill-rule="nonzero"/>
        <path d="M54.1 24.6v.8c.2-.3.7-1 1.6-1 .6 0 1 .2 1.4.5v2.4c-.4-.3-.8-.5-1.5-.5-.8 0-1.5.4-1.5 1.7v4.7h-2.4v-8.6H54zm22.3 8.6h2.4v-5.3c0-2.7-1.4-3.5-3.3-3.5-1 0-2 .3-2.7 1.2-.3-.7-1-1.2-2.1-1.2-1 0-1.5.5-2 1v-.8h-2.4v8.6h2.4v-4.5c0-1.4.4-2 1.4-2 1 0 1.2.6 1.2 2v4.5h2.5v-4.5c0-1.4.3-2 1.3-2s1.3.6 1.3 2v4.5zm7.6.2c1.5 0 2.6-.6 3.3-1.6L86 30.4c-.5.7-1 1-1.9 1-.9 0-1.6-.5-1.7-1.7h5.5v-1.2c0-2.8-1.6-4-3.8-4-2.5 0-4 1.6-4 4.4 0 2.8 1.5 4.5 4 4.5zm-1.7-5.5c.2-.9.8-1.4 1.6-1.4 1 0 1.5.5 1.6 1.4h-3.2zm8.5 5.3h2.1l1-3.9.2-1.4c0 .5.3 1.2.3 1.4l1 3.9h2l2.5-8.6h-2.4l-.9 3.5-.2 1.3-.3-1.3-.9-3.5H93l-.9 3.5-.3 1.3-.2-1.3-.9-3.5h-2.4l2.5 8.6zm13.6.2c2.4 0 4-1.7 4-4.5s-1.6-4.5-4-4.5-4 1.7-4 4.5 1.6 4.5 4 4.5zm0-2.3c-.9 0-1.5-.8-1.5-2.2 0-1.3.6-2.1 1.5-2.1 1 0 1.5.8 1.5 2.1 0 1.4-.5 2.2-1.5 2.2zm5.2 2.1h2.5v-4.7c0-1.3.7-1.7 1.4-1.7s1.2.2 1.5.6l.4-2.3c-.5-.4-1-.7-1.7-.7-1 0-1.5.7-1.6 1v-.8h-2.5v8.6zm14.3 0l-3.1-6 2.6-2.6h-2.9l-2.2 2.2V21l-2.4 1.1v11h2.4v-3.7l.7-.6 2.2 4.3h2.7z" fill-rule="nonzero"/>
        <ellipse cx="97.8" cy="13.6" rx=".6" ry="1.1"/>
        <path d="M64.7 33.1h-2.4v-.6c-.4.5-1 .8-2 .8-1.9 0-3.3-.9-3.3-2.8s1.8-2.7 3.5-2.7c.8 0 1.4 0 1.8.3v-.5c0-.8-.5-1.2-1.4-1.2-.9 0-1.8.3-2.7.9V25c.8-.4 1.8-.6 3-.6 1.5 0 3.5.4 3.5 3.3v5.4zm-4-1.8c-.9 0-1.3-.3-1.3-.8 0-.6.6-.8 1.5-.8.5 0 1 0 1.4.2v.8c-.4.3-.9.6-1.6.6zM34.3 9.1c.6 0 1 .5 1 1V33c0 .6-.4 1.1-1 1.1h-1.8l-4.8-4.8a.4.4 0 00-.6 0L25 31.5l-.2.3c0 .1 0 .2.2.3l1.9 2h-7.1l9.4-9.6 2.6-2.6c.2-.2.2-.5 0-.6L27.4 17a.4.4 0 00-.6 0l-2.2 2.2c-.2.2-.2.5 0 .7l1.3 1.4c.2.1.2.4 0 .6L14 34h-2a1 1 0 01-1-1V10.1c0-.6.4-1 1-1h2l4.5 4.5h.6l2.3-2.3c.2-.2.2-.5 0-.6L19.6 9h6.6L14.5 21c-.2.2-.2.5 0 .7l4.3 4.4c.2.2.5.2.7 0l2.2-2.3c.2-.1.2-.4 0-.6l-1.5-1.5a.5.5 0 010-.7L31.9 9.1h2.4z"/>
        <path d="M130 0a5 5 0 014.8 4.8c.2 11.1 0 22.3 0 33.4a5 5 0 01-4.7 5H4.9a5 5 0 01-4.8-4.9C-.1 27.2 0 16 0 5a5 5 0 014.8-5h125.3zM5 .9c-2.1 0-4 1.8-4 4C.8 15.8.8 27 1 38.2c0 2 1.8 3.8 3.8 4 1.2 0 101.2.2 125.2 0 2-.2 3.9-2 4-4V4.8c-.1-2-1.9-3.8-4-4H5z" fill-rule="nonzero"/>
    </g>
</svg>
