<svg width="74" viewBox="0 0 74 96" xmlns="http://www.w3.org/2000/svg" fill-rule="evenodd" clip-rule="evenodd" stroke-linejoin="round" stroke-miterlimit="1.4">
  <path fill="#41ff8b" stroke="#333" d="M593.9 277.4h72.9v54.7h-72.9z" transform="translate(-593.4 -237.3)"/>
  <path d="M48.8 50l.1.3-.1.3-14.2 18.3c-.2.1-.3.3-.6.3l-.5-.2-8-7.8-.3-.2v-.3-.3l.1-.1 2.6-2.7s.2-.3.4-.3c.3 0 .5.2.6.3l4.6 4.5 11.4-14.7.4-.1.4.1 3.1 2.5z" fill="#333" fill-rule="nonzero"/>
  <path d="M11.8 78.9h2.9v-1.7H7v1.7h3v8.5h1.7v-8.5z" fill="#333" fill-rule="nonzero"/>
  <path d="M15.8 87.4h1.7v-4h2.1l2 4h2l-2-4.2a3 3 0 002-2.9c0-1.6-.8-3.1-3.3-3.1h-4.5v10.2zm1.7-5.7V79h2.8c1.2 0 1.5.7 1.5 1.4s-.4 1.4-1.5 1.4h-2.8z" fill="#333" fill-rule="nonzero"/>
  <path d="M28.8 87.6c2.2 0 4-1 4-4.1v-6.3h-1.7v6.3c0 1.9-1 2.4-2.3 2.4-1.3 0-2.2-.5-2.2-2.4v-6.3H25v6.3c0 3 1.8 4 4 4z" fill="#333" fill-rule="nonzero"/>
  <path d="M37.7 87.6c2 0 3.6-1.1 3.6-3.1 0-2.2-1.8-2.8-3.3-3.3-1-.4-2-.7-2-1.4s.6-1.1 1.5-1.1c1 0 1.6.4 1.8 1l1.6-.5c-.4-1.2-1.5-2.2-3.3-2.2-2.1 0-3.3 1.3-3.3 2.8 0 1.9 1.6 2.5 3 3 1.2.4 2.3.7 2.3 1.7s-.7 1.4-1.8 1.4c-1 0-1.9-.6-2.3-1.6L34 85c.6 1.6 2 2.7 3.8 2.7z" fill="#333" fill-rule="nonzero"/>
  <path d="M46.6 78.9h3v-1.7H42v1.7h2.9v8.5h1.7v-8.5z" fill="#333" fill-rule="nonzero"/>
  <path d="M50.6 87.4h7v-1.7h-5.2V83h3v-1.7h-3v-2.5h4.8v-1.6h-6.6v10.2z" fill="#333" fill-rule="nonzero"/>
  <path d="M58.8 77.2v10.2h3c3.8 0 5-2.8 5-5.1 0-2.5-1.3-5.1-4.9-5.1h-3.1zm3.3 8.5h-1.6v-6.9h1.8c2 0 2.7 1.8 2.7 3.5 0 1.6-.7 3.4-2.9 3.4z" fill="#333" fill-rule="nonzero"/>
  <g>
    <path d="M13.3 40V23.7C13.3 10.7 24 0 37 0s23.6 10.7 23.6 23.7V40h-6.4V23c0-9.6-7.6-17.2-17.2-17.2-9.7 0-17.3 7.6-17.3 17.3v17h-6.4z" fill="#333"/>
  </g>
</svg>