<svg width="512" height="512" viewBox="0 0 299 299" xmlns="http://www.w3.org/2000/svg" fill-rule="evenodd" clip-rule="evenodd" stroke-linejoin="round" stroke-miterlimit="2">
    <path d="M285.99 0c7.175 0 13 5.783 13 12.906v273.187c0 7.123-5.825 12.906-13 12.906h-21.367l-58.279-57.858a5.433 5.433 0 00-3.83-1.576 5.438 5.438 0 00-3.83 1.576l-27.453 27.255a5.36 5.36 0 00-1.587 3.803c0 1.426.571 2.794 1.587 3.802L194.395 299h-86.41l115.181-114.352a.044.044 0 01.062 0 .04.04 0 00.031.013c.011 0 .023-.004.03-.013l31.254-31.028a5.35 5.35 0 000-7.605L202.515 94.36a5.444 5.444 0 00-7.66 0L167.4 121.616a5.35 5.35 0 000 7.605l16.852 16.731a5.35 5.35 0 010 7.605L37.758 299H12.991c-7.175 0-13-5.783-13-12.906V12.906c0-7.123 5.825-12.907 13-12.907h24.252L92.33 54.69a5.444 5.444 0 007.66 0l27.453-27.255a5.35 5.35 0 000-7.606L107.471-.001h79.778L44.07 142.15a5.35 5.35 0 000 7.606l53.623 53.236a5.444 5.444 0 007.66 0l27.453-27.256a5.35 5.35 0 000-7.605l-18.508-18.375a5.353 5.353 0 010-7.606L257.477 0h28.514z" fill="#3C8CFF"/>
</svg>
