<svg width="74" viewBox="0 0 67 86" xmlns="http://www.w3.org/2000/svg" fill-rule="evenodd" clip-rule="evenodd" stroke-linejoin="round" stroke-miterlimit="1.414">
    <path fill="#fc7474" stroke="#333" d="M.5 36.079h65.598v49.199H.5z"/>
    <path d="M13.505 78.638v-8.4h-1.428v5.22c0 .18.012.42.036.636a6.301 6.301 0 00-.348-.636l-3.396-5.22H6.977v8.4h1.428v-5.304a5.44 5.44 0 00-.036-.624c.108.216.24.456.348.624l3.48 5.304h1.308zm4.824.144c2.712 0 3.684-2.268 3.684-4.344 0-2.076-.972-4.344-3.684-4.344-2.7 0-3.684 2.268-3.684 4.344 0 2.076.984 4.344 3.684 4.344zm0-1.38c-1.632 0-2.196-1.596-2.196-2.964 0-1.296.564-2.964 2.196-2.964 1.632 0 2.196 1.584 2.196 2.964 0 1.284-.576 2.964-2.196 2.964zm7.716-5.784h2.388v-1.38h-6.216v1.38h2.388v7.02h1.44v-7.02zm7.236 7.02h1.404l2.916-8.4h-1.524l-1.872 5.676c-.06.204-.144.48-.204.768-.072-.288-.156-.564-.216-.768l-1.884-5.676h-1.548l2.928 8.4zm9.576 0h1.512l-3.12-8.4h-1.428l-3.132 8.4h1.524l.66-1.836h3.324l.66 1.836zm-1.116-3.132h-2.412l.936-2.52c.084-.24.204-.6.276-.852.06.252.18.612.276.852l.924 2.52zm3.312 3.132h5.52v-1.38h-4.08v-7.02h-1.44v8.4zm6.24-8.4h1.44v8.4h-1.44zm2.94 0v8.4h2.544c3.084 0 4.092-2.28 4.092-4.2 0-2.088-1.104-4.2-4.044-4.2h-2.592zm2.748 7.044h-1.308v-5.688h1.44c1.596 0 2.268 1.428 2.268 2.844 0 1.32-.612 2.844-2.4 2.844z" fill="#333" fill-rule="nonzero"/>
    <path d="M11.98 36.018V21.319C11.98 9.633 21.616 0 33.299 0s21.32 9.636 21.32 21.319v2.699h-5.754v-3.266c0-8.668-6.9-15.565-15.566-15.565s-15.566 6.9-15.566 15.565v15.266H11.98z" fill="#333"/>
    <path d="M42.933 59.189a.659.659 0 01.205.513.658.658 0 01-.205.512l-1.947 1.896c-.154.154-.257.205-.462.205a.655.655 0 01-.512-.205l-6.713-6.712-6.712 6.712c-.155.154-.257.205-.462.205a.655.655 0 01-.512-.205l-1.947-1.896a.653.653 0 01-.205-.512c0-.205.051-.359.205-.513l6.763-6.712-6.763-6.661c-.257-.257-.257-.769 0-1.025l1.896-1.947c.154-.103.307-.205.512-.205.205 0 .359.052.513.205l6.712 6.661 6.713-6.661c.154-.103.307-.205.512-.205.205 0 .359.052.513.205l1.896 1.947a.714.714 0 010 .974l-6.764 6.661 6.764 6.763z" fill="#333" fill-rule="nonzero"/>
</svg>
